<?xml version="1.0" standalone="no"?>
<!DOCTYPE svg PUBLIC "-//W3C//DTD SVG 20010904//EN"
 "http://www.w3.org/TR/2001/REC-SVG-20010904/DTD/svg10.dtd">
<svg version="1.0" xmlns="http://www.w3.org/2000/svg"
 width="881.000000pt" height="881.000000pt" viewBox="0 0 881.000000 881.000000"
 preserveAspectRatio="xMidYMid meet">
<metadata>
Created by potrace 1.14, written by Peter Selinger 2001-2017
</metadata>
<g transform="translate(0.000000,881.000000) scale(0.100000,-0.100000)"
fill="#000000" stroke="none">
<path d="M4161 8140 c-347 -28 -709 -105 -1018 -219 -144 -53 -268 -108 -268
-118 1 -4 59 -51 130 -104 l128 -97 66 25 c262 101 586 178 906 215 160 18
578 15 740 -6 262 -33 495 -84 706 -152 1311 -422 2244 -1527 2393 -2834 20
-173 21 -505 1 -671 -41 -355 -136 -684 -286 -998 -38 -79 -68 -145 -67 -147
2 -1 75 -4 163 -5 l159 -4 47 105 c127 285 211 574 261 895 26 167 36 614 19
803 -54 574 -250 1125 -574 1615 -619 934 -1640 1552 -2777 1682 -163 19 -572
27 -729 15z"/>
<path d="M2273 7854 c-8 -23 1 -28 126 -70 l114 -39 -67 -6 c-64 -5 -86 -13
-74 -25 3 -3 52 -21 109 -40 132 -45 147 -54 89 -52 -82 3 -110 -1 -110 -16 0
-16 48 -33 193 -70 54 -13 101 -27 104 -29 3 -3 -29 -3 -71 0 -54 4 -80 2 -91
-7 -24 -20 1 -40 49 -40 49 0 158 -18 168 -28 4 -4 -18 -8 -49 -9 -71 -2 -105
-11 -100 -26 4 -13 25 -20 110 -37 61 -12 66 -24 14 -35 -17 -4 -36 -9 -40
-12 -16 -10 17 -33 56 -40 l40 -6 -27 -14 c-49 -26 -27 -43 57 -44 29 0 61 -4
72 -9 15 -7 10 -9 -25 -9 -72 1 -80 0 -80 -15 0 -8 36 -31 80 -52 79 -37 89
-53 33 -54 -37 0 -27 -18 25 -44 26 -13 56 -31 67 -40 18 -14 18 -15 3 -16
-31 0 -20 -19 25 -42 35 -19 39 -23 20 -26 -12 -2 -63 17 -115 42 -279 134
-647 123 -947 -28 -78 -40 -221 -144 -243 -178 -9 -13 -27 -34 -41 -48 -14
-14 -29 -38 -32 -53 -7 -27 -7 -27 21 -15 16 6 40 20 54 29 14 9 54 31 89 49
l64 32 -31 -43 c-55 -74 -36 -98 32 -42 16 13 52 36 80 50 l51 26 -38 -42
c-34 -38 -48 -71 -29 -71 4 0 23 8 42 19 57 30 80 35 80 17 0 -22 13 -20 77
14 66 35 77 37 68 10 -10 -32 12 -24 91 30 82 57 99 62 79 23 -27 -52 9 -49
69 6 l28 26 -16 -33 c-19 -37 -13 -56 15 -49 34 9 20 0 -65 -43 -213 -107
-389 -287 -456 -467 -35 -94 -49 -243 -22 -243 4 0 25 30 47 66 22 36 48 72
58 81 16 15 17 13 17 -30 0 -58 12 -66 33 -21 20 41 98 146 104 140 2 -2 -3
-21 -11 -41 -19 -45 -20 -55 -3 -55 19 0 137 83 177 124 41 42 46 43 53 15 9
-36 31 -15 52 49 23 69 32 82 41 58 10 -25 20 -20 53 31 l31 46 0 -31 c0 -18
3 -32 6 -32 4 0 35 23 70 50 42 33 64 45 64 35 0 -31 25 -16 62 40 15 22 42
56 59 75 32 36 33 35 13 -29 -12 -38 24 -31 57 10 17 22 37 38 45 35 7 -3 38
9 68 25 l56 31 -10 -26 c-18 -47 -99 -430 -134 -631 -100 -576 -179 -1266
-217 -1915 -18 -297 -15 -829 5 -970 9 -63 16 -123 16 -132 0 -16 -14 -18
-163 -18 l-162 0 -38 127 c-103 346 -259 588 -466 725 -251 164 -551 113 -794
-136 -51 -52 -134 -155 -155 -191 -4 -7 -88 -34 -187 -60 -99 -26 -193 -54
-210 -63 -16 -9 -37 -17 -45 -18 -8 -2 -20 -11 -27 -20 -7 -10 -13 -14 -13 -8
0 17 -131 -130 -165 -186 -47 -78 -65 -140 -68 -230 l-2 -78 -59 -16 c-138
-39 -223 -142 -248 -301 -34 -217 82 -425 273 -488 12 -4 17 -25 22 -94 6 -87
24 -155 66 -243 54 -112 76 -145 137 -205 90 -90 132 -117 260 -165 l126 -47
44 -83 c111 -208 261 -355 434 -426 52 -22 86 -28 172 -32 96 -4 116 -2 190
21 119 38 199 89 308 197 184 182 326 450 415 783 10 37 23 67 29 68 29 3 77
1 80 -2 2 -2 7 -67 11 -144 4 -77 11 -144 16 -149 4 -5 24 -10 44 -10 24 -1
35 -6 36 -16 1 -8 2 -26 2 -40 1 -15 9 -26 20 -28 14 -3 17 4 17 40 0 35 4 45
22 53 19 8 23 19 24 65 2 73 4 79 14 52 9 -21 14 -22 97 -19 81 3 89 5 100 27
6 13 22 25 34 27 31 5 39 19 39 70 0 46 17 63 62 63 22 0 23 -4 25 -77 3 -71
5 -79 34 -109 30 -31 33 -32 107 -29 42 1 84 3 92 4 8 0 33 17 55 36 22 19 43
35 46 35 3 0 14 -9 24 -20 12 -13 31 -20 56 -20 l37 0 1 -135 c1 -75 4 -142 8
-150 3 -11 20 -15 55 -15 49 0 51 1 116 71 37 39 71 78 76 86 4 9 10 63 13
121 4 113 13 153 13 60 0 -63 11 -77 56 -73 25 2 32 -3 42 -26 7 -16 18 -43
24 -59 7 -17 21 -33 32 -36 18 -6 18 -17 11 -274 -8 -313 -19 -285 116 -295
75 -6 89 -4 129 17 l45 23 2 215 c0 118 2 268 2 333 l1 118 33 14 c28 12 34
11 49 -2 16 -14 20 -14 43 1 l26 17 -5 -91 c-4 -81 -3 -93 15 -108 10 -9 19
-24 19 -33 0 -9 10 -19 23 -23 35 -9 115 -7 122 4 3 6 35 10 69 10 49 0 69 5
90 21 24 19 26 26 26 105 0 67 3 84 15 85 38 3 58 17 51 34 -3 10 5 12 34 9
32 -3 42 1 55 19 15 20 17 21 26 5 7 -13 23 -18 59 -18 36 0 52 -5 59 -17 7
-13 22 -18 60 -18 57 0 54 8 51 -107 -1 -58 1 -68 19 -78 12 -6 21 -19 21 -30
0 -19 32 -44 43 -34 3 3 3 -23 1 -58 -1 -35 0 -68 4 -75 9 -14 66 -21 237 -28
77 -3 189 -7 249 -10 95 -4 111 -2 122 13 10 13 13 68 14 215 0 219 -6 202 70
197 115 -8 172 -3 182 13 23 41 29 13 27 -124 -2 -106 0 -142 10 -148 26 -17
117 -11 159 9 l42 20 0 118 0 118 32 15 c19 8 35 24 39 39 10 35 10 31 15
-110 3 -69 7 -136 10 -150 3 -14 7 -59 9 -100 2 -41 12 -95 21 -120 9 -25 19
-85 23 -135 5 -77 9 -90 25 -93 30 -6 40 14 42 84 2 36 12 95 24 132 23 71 39
190 45 342 3 52 5 97 5 99 1 13 40 -45 40 -60 0 -30 36 -47 98 -45 57 1 82
-10 82 -36 0 -37 73 -55 84 -20 4 11 17 19 38 20 78 5 85 10 96 60 8 38 10 41
11 17 2 -40 11 -51 41 -50 14 0 32 -7 40 -17 11 -12 39 -18 107 -22 112 -6
113 -5 113 90 0 60 16 48 22 -17 3 -28 10 -54 16 -58 6 -4 18 -22 26 -41 l14
-35 121 -2 c67 0 123 3 126 7 3 5 7 37 10 72 2 34 7 95 10 133 4 39 8 93 10
120 l3 50 65 1 c36 1 78 5 94 8 31 8 186 95 191 108 2 4 10 8 18 8 8 0 23 9
34 20 11 11 20 18 20 15 0 -3 6 -1 13 5 50 43 73 60 79 60 4 0 18 11 31 24 14
14 28 22 31 19 3 -3 8 2 12 11 3 9 12 16 19 16 7 0 15 4 17 8 2 4 24 23 51 42
26 18 47 38 47 43 0 6 3 8 6 4 4 -3 23 6 43 21 20 15 42 32 49 37 8 6 25 20
38 33 14 12 28 22 32 22 12 0 62 64 68 87 11 40 -6 61 -118 139 -61 44 -139
99 -174 124 -35 25 -83 58 -106 75 -49 34 -123 91 -153 118 -11 10 -57 45
-102 78 l-81 59 -760 0 -760 0 -6 498 c-7 568 -12 677 -31 695 -8 6 -35 31
-62 53 -26 23 -111 97 -188 164 -77 67 -158 137 -180 155 -22 19 -101 87 -176
152 -75 65 -209 181 -298 258 -89 77 -169 141 -177 143 -8 2 -40 -20 -71 -50
-522 -494 -837 -790 -936 -879 l-38 -34 0 -230 c1 -127 4 -386 7 -577 l7 -348
-630 0 -631 0 -15 88 c-48 268 -61 572 -54 1291 3 328 10 673 16 766 37 613
74 971 127 1255 24 128 26 135 50 136 21 2 24 -2 24 -36 0 -51 12 -56 36 -17
19 32 19 32 22 8 2 -14 -1 -51 -8 -84 -6 -32 -9 -61 -6 -64 2 -3 18 10 35 29
28 31 30 32 25 8 -3 -14 -13 -46 -21 -72 -8 -26 -13 -60 -11 -75 3 -28 3 -27
61 31 31 32 57 56 57 52 0 -18 -33 -82 -60 -116 -46 -58 -37 -99 13 -59 l26
20 -6 -51 c-7 -64 8 -66 45 -5 15 25 30 45 33 45 14 0 -13 -86 -42 -136 -16
-28 -29 -61 -29 -73 0 -37 28 -23 59 32 16 29 46 70 65 92 32 36 35 37 26 13
-17 -48 -52 -112 -81 -148 -30 -35 -39 -80 -16 -80 14 0 60 55 106 128 19 29
35 51 38 49 2 -3 -22 -62 -53 -132 -60 -136 -78 -205 -52 -205 17 0 38 20 38
37 0 7 15 33 33 59 l32 46 3 -39 c4 -47 -29 -141 -64 -182 -28 -33 -32 -56 -8
-47 9 3 19 6 24 6 4 0 24 17 43 37 l36 36 -14 -59 c-7 -32 -23 -81 -35 -108
-18 -40 -20 -50 -9 -57 25 -16 42 -5 85 57 122 179 137 477 38 774 -20 60 -56
144 -80 186 -48 85 -48 84 -35 84 12 0 55 -68 71 -112 l14 -37 14 27 c7 15 11
40 8 57 -5 28 -5 29 9 11 16 -21 18 -36 15 -98 -2 -42 9 -49 28 -18 19 30 30
24 37 -21 6 -36 27 -60 41 -47 2 3 7 29 11 57 3 28 8 50 10 47 2 -2 14 -53 27
-112 23 -106 24 -108 37 -79 7 17 15 57 19 90 l6 60 13 -60 c7 -33 11 -83 8
-112 -6 -55 8 -74 19 -25 3 15 13 49 23 76 l18 49 17 -42 c9 -24 19 -86 23
-137 7 -107 17 -115 48 -36 11 29 23 52 26 52 10 0 19 -67 19 -137 0 -35 4
-63 8 -63 12 0 72 85 72 101 0 7 3 9 7 6 12 -13 63 -142 63 -162 0 -11 5 -27
10 -35 38 -57 34 132 -6 290 -101 400 -431 673 -843 697 -79 5 -99 8 -80 15
13 5 36 7 50 4 15 -3 44 -2 64 1 37 6 37 6 14 19 -20 10 -21 14 -8 19 15 6 41
-3 89 -30 31 -18 46 0 25 32 -8 12 -15 25 -15 28 0 9 59 5 65 -5 3 -5 13 -10
22 -10 9 0 31 -11 49 -25 41 -31 50 -31 58 0 6 24 10 25 44 19 20 -3 61 -20
90 -36 28 -16 52 -24 52 -18 0 23 -29 78 -47 89 -10 6 -13 11 -6 11 23 0 63
-23 78 -47 22 -33 35 -28 28 12 -4 26 -2 35 8 35 23 0 87 -48 94 -70 8 -25 23
-25 50 0 l22 21 52 -21 c36 -14 75 -20 126 -20 89 0 94 10 30 60 -24 19 -42
36 -40 39 9 8 93 -30 141 -64 45 -33 84 -45 84 -27 0 4 -12 27 -25 51 -14 24
-23 46 -21 49 3 3 44 -14 92 -37 47 -22 92 -41 100 -41 43 0 -72 123 -186 199
-193 129 -475 187 -707 146 -213 -38 -409 -131 -535 -253 l-48 -46 0 49 c0
155 -74 377 -178 534 -153 232 -461 434 -717 471 -101 14 -135 13 -142 -6z
m3107 -3934 l0 -110 -110 0 -110 0 0 110 0 110 110 0 110 0 0 -110z m330 0 l0
-110 -110 0 -110 0 0 110 0 110 110 0 110 0 0 -110z m-330 -310 l0 -110 -110
0 -110 0 0 110 0 110 110 0 110 0 0 -110z m330 0 l0 -110 -110 0 -110 0 0 110
0 110 110 0 110 0 0 -110z m2200 -951 c0 -6 -14 -30 -30 -55 l-31 -44 -322 0
c-913 0 -4483 -11 -4683 -14 l-232 -4 -6 37 c-3 20 -6 48 -6 64 l0 27 2655 0
c1879 0 2655 -3 2655 -11z m-7397 -108 c15 -6 27 -9 27 -6 0 2 20 -15 44 -38
73 -70 95 -166 54 -239 -26 -45 -116 -94 -183 -99 -156 -11 -286 144 -231 274
24 58 90 109 166 130 18 4 84 -7 123 -22z m7210 -296 l-27 -55 -811 -1 c-445
0 -918 -2 -1050 -4 -132 -2 -906 -4 -1720 -5 l-1480 -2 -3 47 c-2 26 -1 54 2
61 5 12 400 14 2561 14 l2555 0 -27 -55z"/>
<path d="M2280 7468 c-323 -233 -738 -650 -866 -870 -17 -29 -61 -103 -97
-164 -219 -372 -356 -734 -431 -1144 -39 -213 -50 -347 -49 -605 0 -261 15
-433 59 -659 26 -132 108 -434 123 -449 4 -4 56 48 115 115 122 141 115 108
68 318 -118 519 -102 1032 49 1547 90 308 269 678 440 909 21 29 39 56 39 60
0 4 -22 4 -49 1 -27 -3 -59 -3 -71 0 -20 5 -22 11 -17 49 11 98 154 258 337
379 104 69 179 104 289 134 58 16 92 35 179 99 59 43 126 91 150 107 l43 28
-103 104 c-56 57 -107 103 -113 103 -5 0 -48 -28 -95 -62z"/>
<path d="M5697 7378 c-25 -40 -57 -98 -70 -128 -27 -61 -67 -184 -67 -206 0
-12 76 -14 476 -14 399 0 475 2 465 13 -17 21 -222 156 -341 225 -109 64 -332
165 -386 177 -31 6 -34 4 -77 -67z"/>
<path d="M5543 6788 c3 -70 12 -146 21 -175 l17 -53 736 0 737 0 -30 32 c-51
57 -217 218 -277 269 l-58 49 -576 0 -576 0 6 -122z"/>
<path d="M5651 6403 c141 -235 373 -382 652 -413 218 -25 459 40 665 177 86
57 232 189 232 209 0 6 -9 23 -21 38 l-20 26 -766 0 -765 0 23 -37z"/>
<path d="M5355 5556 c-33 -28 -98 -87 -145 -131 -46 -44 -123 -116 -170 -161
-93 -88 -361 -338 -539 -503 -63 -58 -157 -147 -210 -197 -53 -50 -158 -148
-233 -219 -76 -71 -138 -133 -138 -139 0 -14 188 -216 201 -216 6 0 97 82 202
183 106 100 254 238 327 307 74 69 177 166 230 215 52 50 145 138 205 195 61
57 158 151 217 207 58 57 110 103 113 103 4 0 62 -48 129 -107 67 -60 144
-126 171 -148 48 -40 272 -234 351 -304 22 -20 54 -47 71 -61 31 -25 256 -220
495 -427 71 -62 134 -113 141 -113 7 1 31 25 55 53 23 29 63 75 87 102 25 28
45 57 45 65 0 9 -73 79 -162 155 -88 77 -236 205 -328 285 -92 80 -178 154
-191 164 -13 11 -78 66 -144 124 -155 135 -193 168 -252 218 -26 23 -109 95
-184 160 -75 66 -170 147 -210 180 l-75 62 -59 -52z"/>
<path d="M4380 5221 c-52 -3 -94 -9 -92 -13 1 -5 2 -130 2 -279 0 -162 4 -269
9 -267 7 2 282 254 383 351 15 14 18 33 18 117 l0 100 -112 -2 c-62 -1 -156
-4 -208 -7z"/>
</g>
</svg>
